<?xml version="1.0" encoding="UTF-8" standalone="no"?><!-- Generator: Gravit.io --><svg xmlns="http://www.w3.org/2000/svg" xmlns:xlink="http://www.w3.org/1999/xlink" style="isolation:isolate" viewBox="0 0 500 500" width="500pt" height="500pt"><defs><clipPath id="_clipPath_LQ20nBS5jCy2HTaPMcxPYy5ggESVEhtz"><rect width="500" height="500"/></clipPath></defs><g clip-path="url(#_clipPath_LQ20nBS5jCy2HTaPMcxPYy5ggESVEhtz)"><rect x="0" y="0" width="500" height="500" transform="matrix(1,0,0,1,0,0)" fill="rgb(53,53,53)"/><g filter="url(#yds2zUyybTKJppCTyPMxLjKfyfIHtzQa)"><path d=" M 250 450 C 360.458 450 450 360.458 450 250 C 450 139.543 360.458 50 250 50 C 139.543 50 50 139.543 50 250 C 50 360.458 139.543 450 250 450 Z " fill-rule="evenodd" fill="rgb(105,179,227)"/><path d=" M 176.323 225.074 L 180.776 231.204 L 122.727 271.85 L 158.07 322.325 L 141.997 340.176 L 263.467 449.548 C 342.019 444.325 408.164 393.75 435.952 323.773 L 363.047 223.796 L 342.85 238.524 L 330.945 221.522 L 327.229 224.124 L 248.324 115.52 L 222.125 134.554 L 238.8 134.554 L 238.8 225.074 L 176.323 225.074 Z " fill-rule="evenodd" fill="rgb(75,158,214)"/><path d=" M 279.124 255.304 C 278.555 256.453 278.027 257.678 277.602 259.096 C 276.918 262.5 275.473 267.864 273.26 275.187 C 271.049 282.509 268.413 289.998 265.351 297.66 C 262.284 305.322 259.136 312.049 255.907 317.838 C 252.671 323.624 249.523 326.52 246.46 326.52 C 243.055 326.52 240.759 322.178 239.569 313.493 C 238.374 304.811 237.782 293.66 237.782 280.036 C 237.782 266.418 238.288 251.607 239.311 235.599 C 240.334 219.595 241.607 204.102 243.144 189.118 C 244.673 174.134 246.121 160.939 247.478 149.534 C 248.84 138.126 249.862 130.378 250.542 126.293 C 251.567 120.842 250.12 116.415 246.204 113.011 C 242.288 109.605 237.782 107.733 232.676 107.393 C 227.57 107.052 222.806 108.498 218.381 111.735 C 213.953 114.971 211.741 120.673 211.741 128.846 L 211.741 128.846 L 211.741 128.846 C 211.741 137.358 210.893 149.957 209.189 166.645 C 207.49 183.331 205.954 201.377 204.597 220.788 C 199.491 214.658 193.532 211.082 186.727 210.061 C 174.133 208.018 163.412 209.636 154.565 214.914 C 145.715 220.192 138.652 227.598 133.376 237.132 C 128.101 246.667 124.612 257.393 122.911 269.313 C 121.21 281.229 121.463 292.722 123.676 303.791 C 125.89 314.858 129.888 324.562 135.675 332.907 C 141.462 341.249 149.287 346.613 159.159 348.993 C 164.604 351.04 171.072 350.698 178.558 347.973 C 185.365 345.589 191.068 341.844 195.661 336.736 C 200.258 331.627 203.916 325.84 206.635 319.369 C 209.019 329.584 212.338 337.842 216.594 344.142 C 220.846 350.44 226.889 353.593 234.714 353.593 C 245.265 353.593 254.371 349.504 262.029 341.331 C 269.687 333.162 275.898 323.882 280.662 313.493 C 281.061 312.625 281.451 311.758 281.758 310.909 C 284.711 316.928 288.796 322.188 293.989 326.704 C 301.462 333.204 311.487 336.456 324.058 336.456 L 324.058 336.456 L 324.058 336.456 C 335.269 336.456 344.873 333.376 352.856 327.218 C 360.838 321.058 367.036 313.358 371.458 304.116 C 375.876 294.88 378.34 284.871 378.849 274.089 C 379.356 263.311 377.911 253.131 374.513 243.549 C 371.118 233.966 365.682 225.928 358.204 219.425 C 350.733 212.922 341.047 209.331 329.153 208.644 C 318.96 207.962 310.127 210.698 302.653 216.86 C 295.178 223.017 289.149 230.802 284.56 240.214 C 282.244 244.965 280.361 249.956 279.124 255.304 Z  M 199.999 255.009 C 199.318 250.24 198.045 245.474 196.174 240.707 C 194.301 235.94 191.493 233.215 187.747 232.534 C 182.302 231.513 177.451 233.215 173.198 237.642 C 168.943 242.067 165.455 247.774 162.731 254.753 C 160.01 261.733 158.053 269.482 156.86 277.993 C 155.668 286.507 155.329 294.593 155.84 302.256 C 156.351 309.918 157.797 316.389 160.179 321.667 C 162.561 326.944 165.964 329.924 170.391 330.607 C 174.816 331.287 178.983 329.244 182.897 324.476 C 186.813 319.709 190.215 313.578 193.106 306.087 C 196 298.596 198.128 290.256 199.49 281.06 C 200.85 271.864 201.022 263.182 199.999 255.009 L 199.999 255.009 L 199.999 255.009 Z  M 330.684 313.358 C 334.422 313.702 337.478 311.904 339.858 307.967 C 342.233 304.033 343.936 298.898 344.956 292.569 C 345.973 286.238 346.398 279.309 346.227 271.782 C 346.058 264.253 345.211 257.24 343.68 250.736 C 342.151 244.236 340.024 238.758 337.311 234.309 C 334.589 229.86 331.364 227.636 327.624 227.636 C 324.229 227.636 321.34 229.69 318.96 233.798 C 316.582 237.903 314.8 243.037 313.611 249.196 C 312.418 255.356 311.827 262.113 311.827 269.469 C 311.827 276.827 312.507 283.673 313.864 290 C 315.224 296.333 317.262 301.722 319.98 306.173 C 322.702 310.62 326.264 313.018 330.684 313.358 L 330.684 313.358 L 330.684 313.358 Z " fill-rule="evenodd" fill="rgb(255,255,255)"/></g><defs><filter id="yds2zUyybTKJppCTyPMxLjKfyfIHtzQa" x="-200%" y="-200%" width="400%" height="400%" filterUnits="objectBoundingBox" color-interpolation-filters="sRGB"><feGaussianBlur xmlns="http://www.w3.org/2000/svg" in="SourceGraphic" stdDeviation="5.152330875406834"/><feOffset xmlns="http://www.w3.org/2000/svg" dx="0" dy="5" result="pf_100_offsetBlur"/><feFlood xmlns="http://www.w3.org/2000/svg" flood-color="#000000" flood-opacity="0.65"/><feComposite xmlns="http://www.w3.org/2000/svg" in2="pf_100_offsetBlur" operator="in" result="pf_100_dropShadow"/><feBlend xmlns="http://www.w3.org/2000/svg" in="SourceGraphic" in2="pf_100_dropShadow" mode="normal"/></filter></defs></g></svg>